<?xml version="1.0" encoding="UTF-8"?>
<!DOCTYPE svg PUBLIC "-//W3C//DTD SVG 1.1//EN" "http://www.w3.org/Graphics/SVG/1.1/DTD/svg11.dtd">
<svg xmlns="http://www.w3.org/2000/svg" version="1.1" width="500px" height="500px" style="shape-rendering:geometricPrecision; text-rendering:geometricPrecision; image-rendering:optimizeQuality; fill-rule:evenodd; clip-rule:evenodd" xmlns:xlink="http://www.w3.org/1999/xlink">
<g><path style="opacity:0.02" fill="#738e95" d="M 170.5,124.5 C 179.833,124.5 189.167,124.5 198.5,124.5C 197.833,125.167 197.167,125.833 196.5,126.5C 187.734,125.86 179.068,125.193 170.5,124.5 Z"/></g>
<g><path style="opacity:1" fill="#20262a" d="M 170.5,124.5 C 179.068,125.193 187.734,125.86 196.5,126.5C 198.893,127.21 201.393,127.877 204,128.5C 212.566,126.948 221.066,127.281 229.5,129.5C 231.029,129.471 232.196,128.804 233,127.5C 235.474,127.45 238.141,128.116 241,129.5C 242.892,129.223 244.225,128.223 245,126.5C 248.955,128.024 252.622,128.357 256,127.5C 257.758,128.469 258.258,129.636 257.5,131C 260.7,131.101 263.7,131.768 266.5,133C 265.687,134.314 264.687,135.481 263.5,136.5C 266.979,137.63 270.479,137.63 274,136.5C 288.651,137.126 303.151,137.793 317.5,138.5C 297.167,138.5 276.833,138.5 256.5,138.5C 256.5,194.5 256.5,250.5 256.5,306.5C 255.667,252.002 255.167,197.335 255,142.5C 252.333,143.833 249.667,143.833 247,142.5C 246.219,143.729 245.719,145.062 245.5,146.5C 246.163,149.806 246.663,153.139 247,156.5C 248.195,153.193 249.028,153.027 249.5,156C 247.29,157.971 245.956,160.471 245.5,163.5C 244.908,176.659 244.242,189.659 243.5,202.5C 243.5,181.167 243.5,159.833 243.5,138.5C 241.833,138.5 240.167,138.5 238.5,138.5C 202.5,138.5 166.5,138.5 130.5,138.5C 130.5,140.167 130.5,141.833 130.5,143.5C 130.686,151.32 128.686,152.153 124.5,146C 123.552,145.517 122.552,145.351 121.5,145.5C 121.719,146.675 121.386,147.675 120.5,148.5C 119.682,145.893 119.182,143.226 119,140.5C 118.832,161.337 118.332,182.004 117.5,202.5C 117.541,177.151 117.375,151.818 117,126.5C 134.761,125.529 152.595,124.863 170.5,124.5 Z"/></g>
<g><path style="opacity:1" fill="#ced2d4" d="M 238.5,138.5 C 238.5,138.833 238.5,139.167 238.5,139.5C 202.833,139.5 167.167,139.5 131.5,139.5C 131.5,140.833 131.5,142.167 131.5,143.5C 131.167,143.5 130.833,143.5 130.5,143.5C 130.5,141.833 130.5,140.167 130.5,138.5C 166.5,138.5 202.5,138.5 238.5,138.5 Z"/></g>
<g><path style="opacity:1" fill="#fcfdfc" d="M 238.5,139.5 C 238.667,160.169 238.5,180.836 238,201.5C 237.244,205.758 236.077,209.758 234.5,213.5C 233.603,212.402 232.77,212.402 232,213.5C 230.334,216.213 228.667,218.879 227,221.5C 226.5,220.333 225.667,219.5 224.5,219C 224.957,218.586 225.291,218.086 225.5,217.5C 223.985,215.453 223.151,213.119 223,210.5C 222.309,213.266 220.809,213.933 218.5,212.5C 215.607,214.32 212.274,216.32 208.5,218.5C 207.269,217.349 207.269,216.183 208.5,215C 207.5,214.333 206.5,214.333 205.5,215C 206.654,215.914 206.487,216.747 205,217.5C 204.667,216.833 204.333,216.167 204,215.5C 201.95,218.3 200.116,220.634 198.5,222.5C 196.504,221.39 194.671,221.724 193,223.5C 192.667,223.167 192.333,222.833 192,222.5C 186.628,223.889 181.128,224.723 175.5,225C 172.782,225.653 170.116,226.487 167.5,227.5C 166.006,227.291 164.839,226.624 164,225.5C 163.517,226.448 163.351,227.448 163.5,228.5C 157.833,228.5 152.167,228.5 146.5,228.5C 132.5,228.5 118.5,228.5 104.5,228.5C 104.5,227.167 104.5,225.833 104.5,224.5C 104.5,222.833 104.5,221.167 104.5,219.5C 125.5,219.5 146.5,219.5 167.5,219.5C 176.173,219.666 184.84,219.5 193.5,219C 207.819,212.468 213.819,201.302 211.5,185.5C 211.664,178.798 211.331,172.131 210.5,165.5C 193.167,165.5 175.833,165.5 158.5,165.5C 158.5,177.167 158.5,188.833 158.5,200.5C 149.467,200.284 140.467,200.617 131.5,201.5C 131.5,182.167 131.5,162.833 131.5,143.5C 131.5,142.167 131.5,140.833 131.5,139.5C 167.167,139.5 202.833,139.5 238.5,139.5 Z"/></g>
<g><path style="opacity:1" fill="#fbfcfc" d="M 324.5,139.5 C 342.344,141.904 356.01,150.571 365.5,165.5C 368.859,174.845 370.193,184.511 369.5,194.5C 368.968,198.064 367.302,201.064 364.5,203.5C 363.985,207.791 362.652,211.791 360.5,215.5C 359.131,211.782 357.131,211.115 354.5,213.5C 352.866,213.032 351.7,212.032 351,210.5C 348.833,212 349,213.167 351.5,214C 347.531,216.206 343.364,218.039 339,219.5C 335.483,218.032 334.149,219.032 335,222.5C 333.601,221.773 332.101,221.273 330.5,221C 332.886,220.716 333.552,219.716 332.5,218C 333.5,217.667 334.5,217.333 335.5,217C 336.604,215.198 336.604,213.031 335.5,210.5C 344.289,197.845 343.289,186.179 332.5,175.5C 332.652,173.758 332.652,171.924 332.5,170C 328.61,167.273 324.277,165.607 319.5,165C 307.838,164.5 296.171,164.333 284.5,164.5C 284.5,182.833 284.5,201.167 284.5,219.5C 286.167,219.5 287.833,219.5 289.5,219.5C 290.531,220.249 291.698,220.915 293,221.5C 303.484,220.085 313.984,220.252 324.5,222C 320.29,223.508 315.624,224.842 310.5,226C 310.833,226.333 311.167,226.667 311.5,227C 309.301,228.583 306.968,228.75 304.5,227.5C 304.67,228.822 304.337,229.989 303.5,231C 298.009,229.722 293.842,231.556 291,236.5C 287.892,233.419 284.059,231.919 279.5,232C 281.167,231.667 282.833,231.333 284.5,231C 277.584,229.243 270.584,229.076 263.5,230.5C 267.311,231.738 267.311,232.404 263.5,232.5C 262.629,240.8 262.295,249.133 262.5,257.5C 261.606,291.491 261.273,325.491 261.5,359.5C 261.5,360.167 261.5,360.833 261.5,361.5C 260.629,364.112 259.963,366.779 259.5,369.5C 258.833,369.833 258.167,370.167 257.5,370.5C 257.5,293.5 257.5,216.5 257.5,139.5C 279.833,139.5 302.167,139.5 324.5,139.5 Z"/></g>
<g><path style="opacity:1" fill="#1b2125" d="M 198.5,124.5 C 239.501,124.333 280.501,124.5 321.5,125C 356.223,128.396 378.056,146.896 387,180.5C 387.721,186.55 388.721,192.55 390,198.5C 391.579,200.041 393.413,201.208 395.5,202C 400.974,202.884 406.14,204.384 411,206.5C 411.529,218.332 412.029,230.165 412.5,242C 412.532,247.888 412.032,253.721 411,259.5C 401.666,267.336 392.499,275.336 383.5,283.5C 381.501,280.815 381.501,278.315 383.5,276C 381.5,275.333 379.5,275.333 377.5,276C 378.022,276.561 378.355,277.228 378.5,278C 375.542,280.419 374.042,283.586 374,287.5C 373.503,283.476 373.669,279.476 374.5,275.5C 372.364,275.462 371.031,274.795 370.5,273.5C 370.795,271.265 370.461,269.265 369.5,267.5C 363.69,266.51 357.69,266.177 351.5,266.5C 348.167,266.5 344.833,266.5 341.5,266.5C 341.5,266.167 341.5,265.833 341.5,265.5C 343.604,265.799 345.604,265.466 347.5,264.5C 347.291,263.914 346.957,263.414 346.5,263C 350.946,261.971 353.446,259.138 354,254.5C 356.601,255.726 357.435,255.06 356.5,252.5C 358.045,251.548 359.712,251.215 361.5,251.5C 361.5,252.167 361.167,252.5 360.5,252.5C 359.522,252.811 358.855,253.478 358.5,254.5C 364.128,255.495 369.794,255.829 375.5,255.5C 382.558,255.797 389.558,255.464 396.5,254.5C 397.492,250.217 397.826,245.884 397.5,241.5C 393.5,241.5 389.5,241.5 385.5,241.5C 380.073,241.218 374.74,241.551 369.5,242.5C 369.082,241.778 368.416,241.278 367.5,241C 368.406,239.301 368.739,237.467 368.5,235.5C 370.792,235.756 372.959,235.423 375,234.5C 375.333,235.5 375.667,236.5 376,237.5C 376.219,236.062 376.719,234.729 377.5,233.5C 381.82,233.992 385.82,235.325 389.5,237.5C 390.91,237.132 391.91,236.299 392.5,235C 390.754,234.529 389.087,233.862 387.5,233C 389.769,232.242 391.936,232.409 394,233.5C 394.717,232.956 395.217,232.289 395.5,231.5C 396.805,229.603 397.471,227.269 397.5,224.5C 397.497,221.975 397.163,219.641 396.5,217.5C 392.173,217.016 388.173,217.682 384.5,219.5C 383.631,216.22 382.964,212.887 382.5,209.5C 383.618,205.933 384.618,202.266 385.5,198.5C 384.518,195.904 383.851,193.238 383.5,190.5C 381.876,190.64 380.71,189.973 380,188.5C 379.586,188.957 379.086,189.291 378.5,189.5C 376.395,187.657 375.228,185.324 375,182.5C 374.536,183.094 374.369,183.761 374.5,184.5C 372.85,177.561 369.85,171.228 365.5,165.5C 356.01,150.571 342.344,141.904 324.5,139.5C 322.393,138.532 320.059,138.198 317.5,138.5C 303.151,137.793 288.651,137.126 274,136.5C 270.479,137.63 266.979,137.63 263.5,136.5C 264.687,135.481 265.687,134.314 266.5,133C 263.7,131.768 260.7,131.101 257.5,131C 258.258,129.636 257.758,128.469 256,127.5C 252.622,128.357 248.955,128.024 245,126.5C 244.225,128.223 242.892,129.223 241,129.5C 238.141,128.116 235.474,127.45 233,127.5C 232.196,128.804 231.029,129.471 229.5,129.5C 221.066,127.281 212.566,126.948 204,128.5C 201.393,127.877 198.893,127.21 196.5,126.5C 197.167,125.833 197.833,125.167 198.5,124.5 Z"/></g>
<g><path style="opacity:1" fill="#acb5b7" d="M 130.5,143.5 C 130.833,143.5 131.167,143.5 131.5,143.5C 131.5,162.833 131.5,182.167 131.5,201.5C 140.467,200.617 149.467,200.284 158.5,200.5C 158.5,188.833 158.5,177.167 158.5,165.5C 175.833,165.5 193.167,165.5 210.5,165.5C 211.331,172.131 211.664,178.798 211.5,185.5C 210.513,180.695 210.179,175.695 210.5,170.5C 194.833,170.5 179.167,170.5 163.5,170.5C 163.5,182.167 163.5,193.833 163.5,205.5C 152.5,205.5 141.5,205.5 130.5,205.5C 130.5,184.833 130.5,164.167 130.5,143.5 Z"/></g>
<g><path style="opacity:1" fill="#afb6b8" d="M 332.5,175.5 C 329.16,173.41 325.493,172.077 321.5,171.5C 311.013,170.506 300.346,170.172 289.5,170.5C 289.5,186.833 289.5,203.167 289.5,219.5C 287.833,219.5 286.167,219.5 284.5,219.5C 284.5,201.167 284.5,182.833 284.5,164.5C 296.171,164.333 307.838,164.5 319.5,165C 324.277,165.607 328.61,167.273 332.5,170C 332.652,171.924 332.652,173.758 332.5,175.5 Z"/></g>
<g><path style="opacity:1" fill="#141a1f" d="M 321.5,171.5 C 325.493,172.077 329.16,173.41 332.5,175.5C 343.289,186.179 344.289,197.845 335.5,210.5C 332.049,214.402 327.716,217.069 322.5,218.5C 311.833,218.5 301.167,218.5 290.5,218.5C 290.5,202.833 290.5,187.167 290.5,171.5C 300.833,171.5 311.167,171.5 321.5,171.5 Z"/></g>
<g><path style="opacity:1" fill="#fbfdfd" d="M 320.5,199.5 C 315.08,200.387 309.58,201.387 304,202.5C 303.536,201.906 303.369,201.239 303.5,200.5C 303.5,195.167 303.5,189.833 303.5,184.5C 309.167,184.5 314.833,184.5 320.5,184.5C 320.5,189.5 320.5,194.5 320.5,199.5 Z"/></g>
<g><path style="opacity:1" fill="#3f4548" d="M 321.5,171.5 C 311.167,171.5 300.833,171.5 290.5,171.5C 290.5,187.167 290.5,202.833 290.5,218.5C 301.167,218.5 311.833,218.5 322.5,218.5C 311.679,219.495 300.679,219.828 289.5,219.5C 289.5,203.167 289.5,186.833 289.5,170.5C 300.346,170.172 311.013,170.506 321.5,171.5 Z"/></g>
<g><path style="opacity:1" fill="#b8bdc1" d="M 324.5,183.5 C 325.812,188.015 325.812,192.682 324.5,197.5C 323.667,196.5 322.833,195.5 322,194.5C 321.802,196.382 321.302,198.048 320.5,199.5C 320.5,194.5 320.5,189.5 320.5,184.5C 314.833,184.5 309.167,184.5 303.5,184.5C 303.5,189.833 303.5,195.167 303.5,200.5C 303.167,200.5 302.833,200.5 302.5,200.5C 302.5,194.833 302.5,189.167 302.5,183.5C 309.833,183.5 317.167,183.5 324.5,183.5 Z"/></g>
<g><path style="opacity:1" fill="#9ea8aa" d="M 324.5,183.5 C 324.56,182.957 324.893,182.624 325.5,182.5C 326.727,189.846 326.727,197.179 325.5,204.5C 317.876,205.398 310.209,205.731 302.5,205.5C 302.5,203.833 302.5,202.167 302.5,200.5C 302.833,200.5 303.167,200.5 303.5,200.5C 303.369,201.239 303.536,201.906 304,202.5C 309.58,201.387 315.08,200.387 320.5,199.5C 321.302,198.048 321.802,196.382 322,194.5C 322.833,195.5 323.667,196.5 324.5,197.5C 325.812,192.682 325.812,188.015 324.5,183.5 Z"/></g>
<g><path style="opacity:1" fill="#1a2024" d="M 130.5,143.5 C 130.5,164.167 130.5,184.833 130.5,205.5C 141.5,205.5 152.5,205.5 163.5,205.5C 163.5,193.833 163.5,182.167 163.5,170.5C 179.167,170.5 194.833,170.5 210.5,170.5C 210.179,175.695 210.513,180.695 211.5,185.5C 213.819,201.302 207.819,212.468 193.5,219C 184.84,219.5 176.173,219.666 167.5,219.5C 146.34,218.503 125.007,218.169 103.5,218.5C 103.205,220.735 103.539,222.735 104.5,224.5C 104.5,225.833 104.5,227.167 104.5,228.5C 104.5,229.833 104.5,231.167 104.5,232.5C 116.883,232.206 129.217,232.54 141.5,233.5C 140.158,234.793 138.491,235.626 136.5,236C 128.109,236.282 119.776,237.115 111.5,238.5C 110.006,238.291 108.839,237.624 108,236.5C 106.898,237.949 105.731,239.282 104.5,240.5C 104.5,244.833 104.5,249.167 104.5,253.5C 107.833,254.167 111.167,254.833 114.5,255.5C 112.5,255.833 110.5,256.167 108.5,256.5C 108.192,258.924 108.526,261.257 109.5,263.5C 111.571,264.786 111.904,266.453 110.5,268.5C 109.737,264.456 107.404,262.956 103.5,264C 103.194,266.37 103.527,268.87 104.5,271.5C 101.786,268.785 98.7861,266.451 95.5,264.5C 95.0383,262.243 94.0383,260.243 92.5,258.5C 93.4415,258.511 94.1081,258.011 94.5,257C 93.9896,255.174 93.1562,255.007 92,256.5C 90.171,249.544 90.0044,242.544 91.5,235.5C 91.4496,231.914 90.783,228.58 89.5,225.5C 89.5,218.5 89.5,211.5 89.5,204.5C 98.7357,204.176 108.069,203.51 117.5,202.5C 118.332,182.004 118.832,161.337 119,140.5C 119.182,143.226 119.682,145.893 120.5,148.5C 121.386,147.675 121.719,146.675 121.5,145.5C 122.552,145.351 123.552,145.517 124.5,146C 128.686,152.153 130.686,151.32 130.5,143.5 Z"/></g>
<g><path style="opacity:1" fill="#aab3b5" d="M 197.5,184.5 C 197.5,191.167 197.5,197.833 197.5,204.5C 190.336,205.448 183.336,205.448 176.5,204.5C 178.048,204.179 178.715,203.179 178.5,201.5C 182.555,201.824 186.555,201.491 190.5,200.5C 191.268,196.555 191.768,192.555 192,188.5C 193.774,187.035 195.608,185.702 197.5,184.5 Z"/></g>
<g><path style="opacity:1" fill="#363a3e" d="M 197.5,204.5 C 197.5,197.833 197.5,191.167 197.5,184.5C 190.687,183.509 183.687,183.175 176.5,183.5C 176.5,188.833 176.5,194.167 176.5,199.5C 175.511,194.025 175.178,188.358 175.5,182.5C 183.167,182.5 190.833,182.5 198.5,182.5C 198.825,190.019 198.492,197.352 197.5,204.5 Z"/></g>
<g><path style="opacity:1" fill="#f8fafa" d="M 197.5,184.5 C 195.608,185.702 193.774,187.035 192,188.5C 191.768,192.555 191.268,196.555 190.5,200.5C 186.555,201.491 182.555,201.824 178.5,201.5C 178.715,203.179 178.048,204.179 176.5,204.5C 176.5,202.833 176.5,201.167 176.5,199.5C 176.5,194.167 176.5,188.833 176.5,183.5C 183.687,183.175 190.687,183.509 197.5,184.5 Z"/></g>
<g><path style="opacity:1" fill="#f4f7f6" d="M 234.5,213.5 C 231.462,221.04 226.795,227.54 220.5,233C 221.705,234.376 223.038,235.542 224.5,236.5C 225.569,240.127 224.569,240.461 221.5,237.5C 221.704,238.529 221.204,239.529 220,240.5C 218.667,239.833 217.333,239.167 216,238.5C 214.644,239.38 213.144,239.714 211.5,239.5C 211.5,242.167 211.5,244.833 211.5,247.5C 207.162,247.622 206.828,247.955 210.5,248.5C 210.5,249.833 210.5,251.167 210.5,252.5C 209.167,252.5 207.833,252.5 206.5,252.5C 206.354,249.45 205.02,248.45 202.5,249.5C 197.161,247.981 191.661,247.314 186,247.5C 159.841,248.385 133.675,248.719 107.5,248.5C 107.5,250.167 107.5,251.833 107.5,253.5C 106.5,253.5 105.5,253.5 104.5,253.5C 104.5,249.167 104.5,244.833 104.5,240.5C 119.527,240.622 134.193,238.622 148.5,234.5C 152.35,233.623 156.017,232.289 159.5,230.5C 155.018,229.833 150.684,229.166 146.5,228.5C 152.167,228.5 157.833,228.5 163.5,228.5C 163.351,227.448 163.517,226.448 164,225.5C 164.839,226.624 166.006,227.291 167.5,227.5C 170.116,226.487 172.782,225.653 175.5,225C 181.128,224.723 186.628,223.889 192,222.5C 192.333,222.833 192.667,223.167 193,223.5C 194.671,221.724 196.504,221.39 198.5,222.5C 200.116,220.634 201.95,218.3 204,215.5C 204.333,216.167 204.667,216.833 205,217.5C 206.487,216.747 206.654,215.914 205.5,215C 206.5,214.333 207.5,214.333 208.5,215C 207.269,216.183 207.269,217.349 208.5,218.5C 212.274,216.32 215.607,214.32 218.5,212.5C 220.809,213.933 222.309,213.266 223,210.5C 223.151,213.119 223.985,215.453 225.5,217.5C 225.291,218.086 224.957,218.586 224.5,219C 225.667,219.5 226.5,220.333 227,221.5C 228.667,218.879 230.334,216.213 232,213.5C 232.77,212.402 233.603,212.402 234.5,213.5 Z"/></g>
<g><path style="opacity:1" fill="#f0f2f2" d="M 369.5,194.5 C 367.361,221.389 353.361,238.555 327.5,246C 315.85,246.938 304.183,247.438 292.5,247.5C 291.5,247.5 290.5,247.5 289.5,247.5C 288.081,246.549 286.415,246.216 284.5,246.5C 284.887,250.817 283.554,254.483 280.5,257.5C 282.305,259.86 281.805,261.527 279,262.5C 275.343,259.428 271.51,256.761 267.5,254.5C 266.52,255.981 265.353,257.315 264,258.5C 263.617,257.944 263.117,257.611 262.5,257.5C 262.295,249.133 262.629,240.8 263.5,232.5C 267.311,232.404 267.311,231.738 263.5,230.5C 270.584,229.076 277.584,229.243 284.5,231C 282.833,231.333 281.167,231.667 279.5,232C 284.059,231.919 287.892,233.419 291,236.5C 293.842,231.556 298.009,229.722 303.5,231C 304.337,229.989 304.67,228.822 304.5,227.5C 306.968,228.75 309.301,228.583 311.5,227C 311.167,226.667 310.833,226.333 310.5,226C 315.624,224.842 320.29,223.508 324.5,222C 313.984,220.252 303.484,220.085 293,221.5C 291.698,220.915 290.531,220.249 289.5,219.5C 300.679,219.828 311.679,219.495 322.5,218.5C 327.716,217.069 332.049,214.402 335.5,210.5C 336.604,213.031 336.604,215.198 335.5,217C 334.5,217.333 333.5,217.667 332.5,218C 333.552,219.716 332.886,220.716 330.5,221C 332.101,221.273 333.601,221.773 335,222.5C 334.149,219.032 335.483,218.032 339,219.5C 343.364,218.039 347.531,216.206 351.5,214C 349,213.167 348.833,212 351,210.5C 351.7,212.032 352.866,213.032 354.5,213.5C 357.131,211.115 359.131,211.782 360.5,215.5C 362.652,211.791 363.985,207.791 364.5,203.5C 367.302,201.064 368.968,198.064 369.5,194.5 Z"/></g>
<g><path style="opacity:1" fill="#a9b0b3" d="M 238.5,138.5 C 240.167,138.5 241.833,138.5 243.5,138.5C 243.5,159.833 243.5,181.167 243.5,202.5C 242.382,210.645 239.882,218.312 236,225.5C 232.596,229.394 229.429,233.394 226.5,237.5C 225.833,237.167 225.167,236.833 224.5,236.5C 223.038,235.542 221.705,234.376 220.5,233C 226.795,227.54 231.462,221.04 234.5,213.5C 236.077,209.758 237.244,205.758 238,201.5C 238.5,180.836 238.667,160.169 238.5,139.5C 238.5,139.167 238.5,138.833 238.5,138.5 Z"/></g>
<g><path style="opacity:1" fill="#85888a" d="M 167.5,219.5 C 146.5,219.5 125.5,219.5 104.5,219.5C 104.5,221.167 104.5,222.833 104.5,224.5C 103.539,222.735 103.205,220.735 103.5,218.5C 125.007,218.169 146.34,218.503 167.5,219.5 Z"/></g>
<g><path style="opacity:1" fill="#f3f6f5" d="M 396.5,217.5 C 396.5,220.833 396.5,224.167 396.5,227.5C 391.308,227.091 386.308,227.758 381.5,229.5C 381.5,229.167 381.5,228.833 381.5,228.5C 382.302,225.426 383.302,222.426 384.5,219.5C 388.173,217.682 392.173,217.016 396.5,217.5 Z"/></g>
<g><path style="opacity:1" fill="#aab4b3" d="M 396.5,227.5 C 396.5,228.5 396.5,229.5 396.5,230.5C 391.305,230.821 386.305,230.487 381.5,229.5C 386.308,227.758 391.308,227.091 396.5,227.5 Z"/></g>
<g><path style="opacity:1" fill="#b3bab8" d="M 104.5,228.5 C 118.5,228.5 132.5,228.5 146.5,228.5C 150.684,229.166 155.018,229.833 159.5,230.5C 156.017,232.289 152.35,233.623 148.5,234.5C 146.393,233.532 144.059,233.198 141.5,233.5C 129.217,232.54 116.883,232.206 104.5,232.5C 104.5,231.167 104.5,229.833 104.5,228.5 Z"/></g>
<g><path style="opacity:1" fill="#7f8889" d="M 396.5,217.5 C 397.163,219.641 397.497,221.975 397.5,224.5C 397.471,227.269 396.805,229.603 395.5,231.5C 390.5,231.5 385.5,231.5 380.5,231.5C 380.263,230.209 380.596,229.209 381.5,228.5C 381.5,228.833 381.5,229.167 381.5,229.5C 386.305,230.487 391.305,230.821 396.5,230.5C 396.5,229.5 396.5,228.5 396.5,227.5C 396.5,224.167 396.5,220.833 396.5,217.5 Z"/></g>
<g><path style="opacity:1" fill="#353d43" d="M 141.5,233.5 C 144.059,233.198 146.393,233.532 148.5,234.5C 134.193,238.622 119.527,240.622 104.5,240.5C 105.731,239.282 106.898,237.949 108,236.5C 108.839,237.624 110.006,238.291 111.5,238.5C 119.776,237.115 128.109,236.282 136.5,236C 138.491,235.626 140.158,234.793 141.5,233.5 Z"/></g>
<g><path style="opacity:1" fill="#a6afb3" d="M 365.5,165.5 C 369.85,171.228 372.85,177.561 374.5,184.5C 377.481,218.744 362.814,241.244 330.5,252C 317.872,253.321 305.205,253.821 292.5,253.5C 289.372,249.658 290.039,248.158 294.5,249C 293.584,248.722 292.918,248.222 292.5,247.5C 304.183,247.438 315.85,246.938 327.5,246C 353.361,238.555 367.361,221.389 369.5,194.5C 370.193,184.511 368.859,174.845 365.5,165.5 Z"/></g>
<g><path style="opacity:1" fill="#f5f8f9" d="M 385.5,241.5 C 388.962,242.482 392.629,242.815 396.5,242.5C 396.5,244.5 396.5,246.5 396.5,248.5C 386.828,248.334 377.161,248.5 367.5,249C 365.651,250.093 363.984,251.426 362.5,253C 361.563,253.692 360.897,253.525 360.5,252.5C 361.167,252.5 361.5,252.167 361.5,251.5C 364.022,249.639 366.522,247.639 369,245.5C 369.483,244.552 369.649,243.552 369.5,242.5C 374.74,241.551 380.073,241.218 385.5,241.5 Z"/></g>
<g><path style="opacity:1" fill="#a9b3b6" d="M 202.5,249.5 C 206.277,253.541 209.943,257.708 213.5,262C 211.837,262.265 210.337,261.765 209,260.5C 208.517,261.448 208.351,262.448 208.5,263.5C 208.167,263.5 207.833,263.5 207.5,263.5C 205.575,257.893 201.908,254.559 196.5,253.5C 169.195,255.172 141.862,255.839 114.5,255.5C 111.167,254.833 107.833,254.167 104.5,253.5C 105.5,253.5 106.5,253.5 107.5,253.5C 107.5,251.833 107.5,250.167 107.5,248.5C 133.675,248.719 159.841,248.385 186,247.5C 191.661,247.314 197.161,247.981 202.5,249.5 Z"/></g>
<g><path style="opacity:1" fill="#131a1e" d="M 256.5,306.5 C 256.5,321.5 256.5,336.5 256.5,351.5C 255.504,351.586 254.671,351.252 254,350.5C 253.667,342.833 253.333,335.167 253,327.5C 251.836,335.459 251.336,343.459 251.5,351.5C 249.5,351.5 247.5,351.5 245.5,351.5C 246.427,357.382 247.76,362.716 249.5,367.5C 250.5,367.5 251.5,367.5 252.5,367.5C 251.296,369.734 250.13,372.067 249,374.5C 248.502,377.817 248.335,381.15 248.5,384.5C 246.876,384.64 245.71,383.973 245,382.5C 244.333,383.167 243.667,383.833 243,384.5C 241.399,382.281 239.233,380.948 236.5,380.5C 231.935,376.723 227.602,372.723 223.5,368.5C 225.607,368.722 227.274,369.722 228.5,371.5C 231.276,370.911 233.61,369.578 235.5,367.5C 236.496,369.816 238.163,371.483 240.5,372.5C 239.145,373.675 239.312,374.675 241,375.5C 241.833,374 243,372.833 244.5,372C 242.881,371.764 241.881,370.931 241.5,369.5C 242.117,369.611 242.617,369.944 243,370.5C 243.667,333.5 243.667,296.5 243,259.5C 240.415,253.767 236.915,248.767 232.5,244.5C 231.2,241.568 229.2,239.234 226.5,237.5C 229.429,233.394 232.596,229.394 236,225.5C 239.882,218.312 242.382,210.645 243.5,202.5C 244.242,189.659 244.908,176.659 245.5,163.5C 245.956,160.471 247.29,157.971 249.5,156C 249.028,153.027 248.195,153.193 247,156.5C 246.663,153.139 246.163,149.806 245.5,146.5C 245.719,145.062 246.219,143.729 247,142.5C 249.667,143.833 252.333,143.833 255,142.5C 255.167,197.335 255.667,252.002 256.5,306.5 Z"/></g>
<g><path style="opacity:1" fill="#a8b0b0" d="M 396.5,248.5 C 396.439,250.592 395.439,252.092 393.5,253C 387.341,253.75 381.341,254.583 375.5,255.5C 369.794,255.829 364.128,255.495 358.5,254.5C 358.855,253.478 359.522,252.811 360.5,252.5C 360.897,253.525 361.563,253.692 362.5,253C 363.984,251.426 365.651,250.093 367.5,249C 377.161,248.5 386.828,248.334 396.5,248.5 Z"/></g>
<g><path style="opacity:1" fill="#899396" d="M 385.5,241.5 C 389.5,241.5 393.5,241.5 397.5,241.5C 397.826,245.884 397.492,250.217 396.5,254.5C 389.558,255.464 382.558,255.797 375.5,255.5C 381.341,254.583 387.341,253.75 393.5,253C 395.439,252.092 396.439,250.592 396.5,248.5C 396.5,246.5 396.5,244.5 396.5,242.5C 392.629,242.815 388.962,242.482 385.5,241.5 Z"/></g>
<g><path style="opacity:1" fill="#e1e3e3" d="M 224.5,236.5 C 225.167,236.833 225.833,237.167 226.5,237.5C 229.2,239.234 231.2,241.568 232.5,244.5C 233.739,247.589 235.239,250.589 237,253.5C 237.5,261.159 237.666,268.826 237.5,276.5C 236.21,277.058 235.377,278.058 235,279.5C 234.374,277.009 233.541,277.009 232.5,279.5C 231.52,282.086 231.187,284.753 231.5,287.5C 228.833,287.5 226.167,287.5 223.5,287.5C 223.541,283.757 222.874,283.59 221.5,287C 220.551,287.617 219.718,287.451 219,286.5C 218.535,287.931 217.701,289.097 216.5,290C 217.784,291.297 217.617,292.464 216,293.5C 215.5,308.83 215.333,324.163 215.5,339.5C 214.502,314.672 214.169,289.672 214.5,264.5C 212.876,264.36 211.71,265.027 211,266.5C 210.5,291.164 210.333,315.831 210.5,340.5C 209.825,314.931 209.158,289.264 208.5,263.5C 208.351,262.448 208.517,261.448 209,260.5C 210.337,261.765 211.837,262.265 213.5,262C 209.943,257.708 206.277,253.541 202.5,249.5C 205.02,248.45 206.354,249.45 206.5,252.5C 207.833,252.5 209.167,252.5 210.5,252.5C 210.5,251.167 210.5,249.833 210.5,248.5C 206.828,247.955 207.162,247.622 211.5,247.5C 211.5,244.833 211.5,242.167 211.5,239.5C 213.144,239.714 214.644,239.38 216,238.5C 217.333,239.167 218.667,239.833 220,240.5C 221.204,239.529 221.704,238.529 221.5,237.5C 224.569,240.461 225.569,240.127 224.5,236.5 Z"/></g>
<g><path style="opacity:0.992" fill="#43464a" d="M 89.5,225.5 C 90.783,228.58 91.4496,231.914 91.5,235.5C 90.0044,242.544 90.171,249.544 92,256.5C 93.1562,255.007 93.9896,255.174 94.5,257C 94.1081,258.011 93.4415,258.511 92.5,258.5C 94.0383,260.243 95.0383,262.243 95.5,264.5C 92.7401,262.905 90.9068,260.572 90,257.5C 89.5002,246.839 89.3335,236.172 89.5,225.5 Z"/></g>
<g><path style="opacity:1" fill="#191f22" d="M 207.5,263.5 C 206.739,264.391 205.739,265.058 204.5,265.5C 203.071,263.917 201.571,263.25 200,263.5C 199.487,264.527 198.987,265.527 198.5,266.5C 196.167,266.5 193.833,266.5 191.5,266.5C 186.5,266.5 181.5,266.5 176.5,266.5C 176.5,269.833 176.5,273.167 176.5,276.5C 175.883,276.611 175.383,276.944 175,277.5C 174.667,280.5 174.333,283.5 174,286.5C 173.798,284.744 173.298,283.078 172.5,281.5C 167.973,278.125 165.973,273.792 166.5,268.5C 166.154,267.304 165.654,267.304 165,268.5C 164.5,288.164 164.333,307.831 164.5,327.5C 164.167,327.5 163.833,327.5 163.5,327.5C 163.5,307.5 163.5,287.5 163.5,267.5C 161.833,267.5 160.167,267.5 158.5,267.5C 150.833,267.5 143.167,267.5 135.5,267.5C 133.833,267.5 132.167,267.5 130.5,267.5C 130.5,272.167 130.5,276.833 130.5,281.5C 130.5,283.167 130.5,284.833 130.5,286.5C 128.408,279.909 127.408,280.076 127.5,287C 128.352,291.864 128.685,296.698 128.5,301.5C 127.671,305.977 127.004,310.477 126.5,315C 126.56,323.753 126.56,332.586 126.5,341.5C 124.167,341.5 121.833,341.5 119.5,341.5C 119.343,342.873 119.51,344.207 120,345.5C 121.754,343.75 123.921,343.083 126.5,343.5C 126.244,345.937 125.577,348.271 124.5,350.5C 125.795,353.986 125.795,357.486 124.5,361C 125.09,363.257 126.423,364.924 128.5,366C 126.109,367.309 126.109,368.309 128.5,369C 128.167,369.333 127.833,369.667 127.5,370C 128.667,370.5 129.5,371.333 130,372.5C 131.573,371.914 133.073,370.747 134.5,369C 137.393,367.851 140.393,367.351 143.5,367.5C 136.206,372.498 129.206,377.998 122.5,384C 120.702,385.505 118.868,385.672 117,384.5C 117.524,350.509 117.524,316.509 117,282.5C 113.083,278.473 108.916,274.806 104.5,271.5C 103.527,268.87 103.194,266.37 103.5,264C 107.404,262.956 109.737,264.456 110.5,268.5C 111.904,266.453 111.571,264.786 109.5,263.5C 108.526,261.257 108.192,258.924 108.5,256.5C 110.5,256.167 112.5,255.833 114.5,255.5C 141.862,255.839 169.195,255.172 196.5,253.5C 201.908,254.559 205.575,257.893 207.5,263.5 Z"/></g>
<g><path style="opacity:1" fill="#959ca0" d="M 289.5,247.5 C 290.5,247.5 291.5,247.5 292.5,247.5C 292.918,248.222 293.584,248.722 294.5,249C 290.039,248.158 289.372,249.658 292.5,253.5C 290.673,282.816 289.839,312.483 290,342.5C 280.084,351.86 269.917,360.86 259.5,369.5C 259.963,366.779 260.629,364.112 261.5,361.5C 269.132,354.369 276.632,347.036 284,339.5C 284.5,327.505 284.667,315.505 284.5,303.5C 284.368,284.822 284.702,266.155 285.5,247.5C 286.833,247.5 288.167,247.5 289.5,247.5 Z"/></g>
<g><path style="opacity:1" fill="#fafcfc" d="M 215.5,339.5 C 216.512,340.872 217.512,342.205 218.5,343.5C 220.475,345.362 220.808,347.362 219.5,349.5C 215.842,347.21 212.842,344.21 210.5,340.5C 210.333,315.831 210.5,291.164 211,266.5C 211.71,265.027 212.876,264.36 214.5,264.5C 214.169,289.672 214.502,314.672 215.5,339.5 Z"/></g>
<g><path style="opacity:1" fill="#f3f6f7" d="M 341.5,266.5 C 341.5,270.167 341.5,273.833 341.5,277.5C 341.17,297.34 341.503,317.007 342.5,336.5C 342.715,338.179 342.048,339.179 340.5,339.5C 338.861,338.527 337.527,337.194 336.5,335.5C 336.5,312.5 336.5,289.5 336.5,266.5C 338.167,266.5 339.833,266.5 341.5,266.5 Z"/></g>
<g><path style="opacity:1" fill="#c3c8cb" d="M 135.5,267.5 C 143.167,267.5 150.833,267.5 158.5,267.5C 158.5,271.833 158.5,276.167 158.5,280.5C 150.616,279.724 142.949,278.057 135.5,275.5C 135.5,272.833 135.5,270.167 135.5,267.5 Z"/></g>
<g><path style="opacity:1" fill="#f0f3f5" d="M 191.5,266.5 C 191.5,266.833 191.5,267.167 191.5,267.5C 191.83,287.34 191.497,307.007 190.5,326.5C 185.543,323.377 181.376,319.377 178,314.5C 177.831,301.66 177.331,288.993 176.5,276.5C 176.5,273.167 176.5,269.833 176.5,266.5C 181.5,266.5 186.5,266.5 191.5,266.5 Z"/></g>
<g><path style="opacity:1" fill="#fafcfd" d="M 309.5,323.5 C 308.27,325.297 307.604,327.297 307.5,329.5C 306.167,330.5 304.833,331.5 303.5,332.5C 303.167,310.823 303.5,289.156 304.5,267.5C 307.93,268.529 309.263,270.862 308.5,274.5C 306.983,290.927 307.316,307.26 309.5,323.5 Z"/></g>
<g><path style="opacity:1" fill="#fbfcfc" d="M 135.5,267.5 C 135.5,270.167 135.5,272.833 135.5,275.5C 135.215,300.522 135.548,325.522 136.5,350.5C 134.774,352.82 134.107,355.487 134.5,358.5C 134.167,359.5 133.5,360.167 132.5,360.5C 131.833,334.167 131.167,307.833 130.5,281.5C 130.5,276.833 130.5,272.167 130.5,267.5C 132.167,267.5 133.833,267.5 135.5,267.5 Z"/></g>
<g><path style="opacity:1" fill="#bec3c6" d="M 341.5,266.5 C 344.833,266.5 348.167,266.5 351.5,266.5C 357.014,267.167 362.681,267.833 368.5,268.5C 367.607,271.084 367.274,273.751 367.5,276.5C 364.008,276.446 361.008,277.446 358.5,279.5C 352.822,278.915 347.155,278.249 341.5,277.5C 341.5,273.833 341.5,270.167 341.5,266.5 Z"/></g>
<g><path style="opacity:1" fill="#949a9d" d="M 232.5,244.5 C 236.915,248.767 240.415,253.767 243,259.5C 243.667,296.5 243.667,333.5 243,370.5C 242.617,369.944 242.117,369.611 241.5,369.5C 233.867,363.203 226.534,356.536 219.5,349.5C 220.808,347.362 220.475,345.362 218.5,343.5C 218.435,343.062 218.601,342.728 219,342.5C 224.724,348.56 230.724,354.227 237,359.5C 237.5,331.835 237.667,304.169 237.5,276.5C 237.666,268.826 237.5,261.159 237,253.5C 235.239,250.589 233.739,247.589 232.5,244.5 Z"/></g>
<g><path style="opacity:1" fill="#161c20" d="M 384.5,219.5 C 383.302,222.426 382.302,225.426 381.5,228.5C 380.596,229.209 380.263,230.209 380.5,231.5C 385.5,231.5 390.5,231.5 395.5,231.5C 395.217,232.289 394.717,232.956 394,233.5C 391.936,232.409 389.769,232.242 387.5,233C 389.087,233.862 390.754,234.529 392.5,235C 391.91,236.299 390.91,237.132 389.5,237.5C 385.82,235.325 381.82,233.992 377.5,233.5C 376.719,234.729 376.219,236.062 376,237.5C 375.667,236.5 375.333,235.5 375,234.5C 372.959,235.423 370.792,235.756 368.5,235.5C 368.739,237.467 368.406,239.301 367.5,241C 368.416,241.278 369.082,241.778 369.5,242.5C 369.649,243.552 369.483,244.552 369,245.5C 366.522,247.639 364.022,249.639 361.5,251.5C 359.712,251.215 358.045,251.548 356.5,252.5C 357.435,255.06 356.601,255.726 354,254.5C 353.446,259.138 350.946,261.971 346.5,263C 346.957,263.414 347.291,263.914 347.5,264.5C 345.604,265.466 343.604,265.799 341.5,265.5C 339.5,265.5 337.5,265.5 335.5,265.5C 335.169,289.006 335.502,312.339 336.5,335.5C 337.527,337.194 338.861,338.527 340.5,339.5C 349.426,347.634 358.759,355.301 368.5,362.5C 368.56,363.043 368.893,363.376 369.5,363.5C 370.5,333.507 370.833,303.507 370.5,273.5C 371.031,274.795 372.364,275.462 374.5,275.5C 373.669,279.476 373.503,283.476 374,287.5C 374.042,283.586 375.542,280.419 378.5,278C 378.355,277.228 378.022,276.561 377.5,276C 379.5,275.333 381.5,275.333 383.5,276C 381.501,278.315 381.501,280.815 383.5,283.5C 382.837,317.667 382.17,351.833 381.5,386C 380.5,386.667 379.5,386.667 378.5,386C 365.693,374.188 352.026,363.521 337.5,354C 331.924,347.919 325.924,342.419 319.5,337.5C 305.75,345.398 293.417,355.231 282.5,367C 272.5,375 262.5,383 252.5,391C 250.833,391.667 249.167,391.667 247.5,391C 243.964,387.296 240.298,383.796 236.5,380.5C 239.233,380.948 241.399,382.281 243,384.5C 243.667,383.833 244.333,383.167 245,382.5C 245.71,383.973 246.876,384.64 248.5,384.5C 248.335,381.15 248.502,377.817 249,374.5C 250.13,372.067 251.296,369.734 252.5,367.5C 251.5,367.5 250.5,367.5 249.5,367.5C 247.76,362.716 246.427,357.382 245.5,351.5C 247.5,351.5 249.5,351.5 251.5,351.5C 251.336,343.459 251.836,335.459 253,327.5C 253.333,335.167 253.667,342.833 254,350.5C 254.671,351.252 255.504,351.586 256.5,351.5C 256.167,358.594 256.5,364.927 257.5,370.5C 258.167,370.167 258.833,369.833 259.5,369.5C 258.323,371.103 258.489,372.436 260,373.5C 261.016,372.366 261.683,372.699 262,374.5C 264.333,373.167 266.667,373.167 269,374.5C 270.675,372.468 272.342,370.468 274,368.5C 275.646,366.859 276.646,367.193 277,369.5C 277.219,368.062 277.719,366.729 278.5,365.5C 279.086,365.709 279.586,366.043 280,366.5C 280.5,365.333 281.333,364.5 282.5,364C 282.335,362.883 282.002,361.716 281.5,360.5C 286.615,357.546 291.282,354.046 295.5,350C 291.389,346.492 291.556,345.992 296,348.5C 296.617,347.551 296.451,346.718 295.5,346C 297.243,343.2 299.243,340.534 301.5,338C 301.355,337.228 301.022,336.561 300.5,336C 306.779,334.21 313.113,332.71 319.5,331.5C 319.351,330.448 319.517,329.448 320,328.5C 325.161,326.782 325.995,323.782 322.5,319.5C 321.757,320.908 320.923,322.241 320,323.5C 319.722,322.584 319.222,321.918 318.5,321.5C 319.273,318.955 320.773,316.955 323,315.5C 324.388,299.205 324.888,282.872 324.5,266.5C 318.5,266.5 312.5,266.5 306.5,266.5C 305.167,266.5 303.833,266.5 302.5,266.5C 302.5,267.5 302.5,268.5 302.5,269.5C 301.542,269.047 300.708,268.381 300,267.5C 298.846,263.546 298.013,259.546 297.5,255.5C 295.219,255.923 293.552,255.256 292.5,253.5C 305.205,253.821 317.872,253.321 330.5,252C 362.814,241.244 377.481,218.744 374.5,184.5C 374.369,183.761 374.536,183.094 375,182.5C 375.228,185.324 376.395,187.657 378.5,189.5C 379.086,189.291 379.586,188.957 380,188.5C 380.71,189.973 381.876,190.64 383.5,190.5C 383.851,193.238 384.518,195.904 385.5,198.5C 384.618,202.266 383.618,205.933 382.5,209.5C 382.964,212.887 383.631,216.22 384.5,219.5 Z"/></g>
<g><path style="opacity:1" fill="#3a3e40" d="M 341.5,265.5 C 341.5,265.833 341.5,266.167 341.5,266.5C 339.833,266.5 338.167,266.5 336.5,266.5C 336.5,289.5 336.5,312.5 336.5,335.5C 335.502,312.339 335.169,289.006 335.5,265.5C 337.5,265.5 339.5,265.5 341.5,265.5 Z"/></g>
<g><path style="opacity:1" fill="#909599" d="M 306.5,266.5 C 312.5,266.5 318.5,266.5 324.5,266.5C 324.888,282.872 324.388,299.205 323,315.5C 320.773,316.955 319.273,318.955 318.5,321.5C 314.833,324.167 311.167,326.833 307.5,329.5C 307.604,327.297 308.27,325.297 309.5,323.5C 312.136,320.69 314.636,317.69 317,314.5C 317.284,298.819 317.784,283.152 318.5,267.5C 314.298,267.817 310.298,267.483 306.5,266.5 Z"/></g>
<g><path style="opacity:1" fill="#dce1e2" d="M 306.5,266.5 C 310.298,267.483 314.298,267.817 318.5,267.5C 317.784,283.152 317.284,298.819 317,314.5C 314.636,317.69 312.136,320.69 309.5,323.5C 307.316,307.26 306.983,290.927 308.5,274.5C 309.263,270.862 307.93,268.529 304.5,267.5C 303.5,289.156 303.167,310.823 303.5,332.5C 302.501,312.243 302.167,291.243 302.5,269.5C 302.5,268.5 302.5,267.5 302.5,266.5C 303.833,266.5 305.167,266.5 306.5,266.5 Z"/></g>
<g><path style="opacity:1" fill="#e3e6e6" d="M 289.5,247.5 C 288.167,247.5 286.833,247.5 285.5,247.5C 284.702,266.155 284.368,284.822 284.5,303.5C 282.78,301.342 281.947,298.675 282,295.5C 281.667,299.5 281.333,303.5 281,307.5C 280.458,302.279 279.624,302.279 278.5,307.5C 274.974,306.041 273.974,303.707 275.5,300.5C 275.141,296.644 272.974,294.644 269,294.5C 266.472,294.558 264.472,295.558 263,297.5C 262.832,318.337 262.332,339.004 261.5,359.5C 261.273,325.491 261.606,291.491 262.5,257.5C 263.117,257.611 263.617,257.944 264,258.5C 265.353,257.315 266.52,255.981 267.5,254.5C 271.51,256.761 275.343,259.428 279,262.5C 281.805,261.527 282.305,259.86 280.5,257.5C 283.554,254.483 284.887,250.817 284.5,246.5C 286.415,246.216 288.081,246.549 289.5,247.5 Z"/></g>
<g><path style="opacity:1" fill="#d8dcdd" d="M 341.5,277.5 C 347.155,278.249 352.822,278.915 358.5,279.5C 360.47,280.162 362.47,280.828 364.5,281.5C 364.833,283.167 365.167,284.833 365.5,286.5C 364.721,308.489 364.221,330.489 364,352.5C 357.793,346.625 351.293,341.125 344.5,336C 343.563,335.308 342.897,335.475 342.5,336.5C 341.503,317.007 341.17,297.34 341.5,277.5 Z"/></g>
<g><path style="opacity:1" fill="#e1e4e3" d="M 135.5,275.5 C 142.949,278.057 150.616,279.724 158.5,280.5C 158.5,297.833 158.5,315.167 158.5,332.5C 151.176,338.498 143.842,344.498 136.5,350.5C 135.548,325.522 135.215,300.522 135.5,275.5 Z"/></g>
<g><path style="opacity:1" fill="#11171b" d="M 292.5,253.5 C 293.552,255.256 295.219,255.923 297.5,255.5C 298.013,259.546 298.846,263.546 300,267.5C 300.708,268.381 301.542,269.047 302.5,269.5C 302.167,291.243 302.501,312.243 303.5,332.5C 304.833,331.5 306.167,330.5 307.5,329.5C 311.167,326.833 314.833,324.167 318.5,321.5C 319.222,321.918 319.722,322.584 320,323.5C 320.923,322.241 321.757,320.908 322.5,319.5C 325.995,323.782 325.161,326.782 320,328.5C 319.517,329.448 319.351,330.448 319.5,331.5C 313.113,332.71 306.779,334.21 300.5,336C 301.022,336.561 301.355,337.228 301.5,338C 299.243,340.534 297.243,343.2 295.5,346C 296.451,346.718 296.617,347.551 296,348.5C 291.556,345.992 291.389,346.492 295.5,350C 291.282,354.046 286.615,357.546 281.5,360.5C 282.002,361.716 282.335,362.883 282.5,364C 281.333,364.5 280.5,365.333 280,366.5C 279.586,366.043 279.086,365.709 278.5,365.5C 277.719,366.729 277.219,368.062 277,369.5C 276.646,367.193 275.646,366.859 274,368.5C 272.342,370.468 270.675,372.468 269,374.5C 266.667,373.167 264.333,373.167 262,374.5C 261.683,372.699 261.016,372.366 260,373.5C 258.489,372.436 258.323,371.103 259.5,369.5C 269.917,360.86 280.084,351.86 290,342.5C 289.839,312.483 290.673,282.816 292.5,253.5 Z"/></g>
<g><path style="opacity:1" fill="#98a0a4" d="M 351.5,266.5 C 357.69,266.177 363.69,266.51 369.5,267.5C 369.832,299.338 369.498,331.004 368.5,362.5C 358.759,355.301 349.426,347.634 340.5,339.5C 342.048,339.179 342.715,338.179 342.5,336.5C 342.897,335.475 343.563,335.308 344.5,336C 351.293,341.125 357.793,346.625 364,352.5C 364.221,330.489 364.721,308.489 365.5,286.5C 365.167,284.833 364.833,283.167 364.5,281.5C 362.47,280.828 360.47,280.162 358.5,279.5C 361.008,277.446 364.008,276.446 367.5,276.5C 367.274,273.751 367.607,271.084 368.5,268.5C 362.681,267.833 357.014,267.167 351.5,266.5 Z"/></g>
<g><path style="opacity:1" fill="#aab3b8" d="M 158.5,267.5 C 160.167,267.5 161.833,267.5 163.5,267.5C 163.5,287.5 163.5,307.5 163.5,327.5C 163.565,327.938 163.399,328.272 163,328.5C 162.581,327.328 161.915,326.328 161,325.5C 160.098,327.927 159.264,330.26 158.5,332.5C 158.5,315.167 158.5,297.833 158.5,280.5C 158.5,276.167 158.5,271.833 158.5,267.5 Z"/></g>
<g><path style="opacity:1" fill="#d6dadb" d="M 237.5,276.5 C 237.667,304.169 237.5,331.835 237,359.5C 230.724,354.227 224.724,348.56 219,342.5C 218.601,342.728 218.435,343.062 218.5,343.5C 217.512,342.205 216.512,340.872 215.5,339.5C 215.333,324.163 215.5,308.83 216,293.5C 217.617,292.464 217.784,291.297 216.5,290C 217.701,289.097 218.535,287.931 219,286.5C 219.718,287.451 220.551,287.617 221.5,287C 222.874,283.59 223.541,283.757 223.5,287.5C 226.167,287.5 228.833,287.5 231.5,287.5C 231.187,284.753 231.52,282.086 232.5,279.5C 233.541,277.009 234.374,277.009 235,279.5C 235.377,278.058 236.21,277.058 237.5,276.5 Z"/></g>
<g><path style="opacity:1" fill="#d3d7d7" d="M 284.5,303.5 C 284.667,315.505 284.5,327.505 284,339.5C 276.632,347.036 269.132,354.369 261.5,361.5C 261.5,360.833 261.5,360.167 261.5,359.5C 262.332,339.004 262.832,318.337 263,297.5C 264.472,295.558 266.472,294.558 269,294.5C 272.974,294.644 275.141,296.644 275.5,300.5C 273.974,303.707 274.974,306.041 278.5,307.5C 279.624,302.279 280.458,302.279 281,307.5C 281.333,303.5 281.667,299.5 282,295.5C 281.947,298.675 282.78,301.342 284.5,303.5 Z"/></g>
<g><path style="opacity:1" fill="#4c565c" d="M 191.5,267.5 C 191.5,267.167 191.5,266.833 191.5,266.5C 193.833,266.5 196.167,266.5 198.5,266.5C 198.833,288.843 198.5,311.177 197.5,333.5C 196.893,333.376 196.56,333.043 196.5,332.5C 197.497,311.006 197.831,289.34 197.5,267.5C 195.5,267.5 193.5,267.5 191.5,267.5 Z"/></g>
<g><path style="opacity:1" fill="#353d42" d="M 369.5,267.5 C 370.461,269.265 370.795,271.265 370.5,273.5C 370.833,303.507 370.5,333.507 369.5,363.5C 368.893,363.376 368.56,363.043 368.5,362.5C 369.498,331.004 369.832,299.338 369.5,267.5 Z"/></g>
<g><path style="opacity:1" fill="#d9dbdb" d="M 317.5,138.5 C 320.059,138.198 322.393,138.532 324.5,139.5C 302.167,139.5 279.833,139.5 257.5,139.5C 257.5,216.5 257.5,293.5 257.5,370.5C 256.5,364.927 256.167,358.594 256.5,351.5C 256.5,336.5 256.5,321.5 256.5,306.5C 256.5,250.5 256.5,194.5 256.5,138.5C 276.833,138.5 297.167,138.5 317.5,138.5 Z"/></g>
<g><path style="opacity:0.998" fill="#151a1e" d="M 207.5,263.5 C 207.833,263.5 208.167,263.5 208.5,263.5C 209.158,289.264 209.825,314.931 210.5,340.5C 212.842,344.21 215.842,347.21 219.5,349.5C 226.534,356.536 233.867,363.203 241.5,369.5C 241.881,370.931 242.881,371.764 244.5,372C 243,372.833 241.833,374 241,375.5C 239.312,374.675 239.145,373.675 240.5,372.5C 238.163,371.483 236.496,369.816 235.5,367.5C 233.61,369.578 231.276,370.911 228.5,371.5C 227.274,369.722 225.607,368.722 223.5,368.5C 214.744,361.917 206.411,354.751 198.5,347C 193.403,343.37 188.236,339.87 183,336.5C 173.884,343.611 165.051,351.111 156.5,359C 152.284,362.056 147.951,364.889 143.5,367.5C 140.393,367.351 137.393,367.851 134.5,369C 133.073,370.747 131.573,371.914 130,372.5C 129.5,371.333 128.667,370.5 127.5,370C 127.833,369.667 128.167,369.333 128.5,369C 126.109,368.309 126.109,367.309 128.5,366C 126.423,364.924 125.09,363.257 124.5,361C 125.795,357.486 125.795,353.986 124.5,350.5C 125.577,348.271 126.244,345.937 126.5,343.5C 123.921,343.083 121.754,343.75 120,345.5C 119.51,344.207 119.343,342.873 119.5,341.5C 121.833,341.5 124.167,341.5 126.5,341.5C 126.56,332.586 126.56,323.753 126.5,315C 127.004,310.477 127.671,305.977 128.5,301.5C 128.685,296.698 128.352,291.864 127.5,287C 127.408,280.076 128.408,279.909 130.5,286.5C 130.333,311.836 130.5,337.169 131,362.5C 131.717,361.956 132.217,361.289 132.5,360.5C 133.5,360.167 134.167,359.5 134.5,358.5C 145.03,351.812 154.864,344.145 164,335.5C 164.497,332.854 164.664,330.187 164.5,327.5C 164.333,307.831 164.5,288.164 165,268.5C 165.654,267.304 166.154,267.304 166.5,268.5C 165.973,273.792 167.973,278.125 172.5,281.5C 173.298,283.078 173.798,284.744 174,286.5C 174.333,283.5 174.667,280.5 175,277.5C 175.383,276.944 175.883,276.611 176.5,276.5C 177.331,288.993 177.831,301.66 178,314.5C 181.376,319.377 185.543,323.377 190.5,326.5C 192.5,328.5 194.5,330.5 196.5,332.5C 196.56,333.043 196.893,333.376 197.5,333.5C 198.5,311.177 198.833,288.843 198.5,266.5C 198.987,265.527 199.487,264.527 200,263.5C 201.571,263.25 203.071,263.917 204.5,265.5C 205.739,265.058 206.739,264.391 207.5,263.5 Z"/></g>
<g><path style="opacity:1" fill="#959ea2" d="M 163.5,327.5 C 163.833,327.5 164.167,327.5 164.5,327.5C 164.664,330.187 164.497,332.854 164,335.5C 154.864,344.145 145.03,351.812 134.5,358.5C 134.107,355.487 134.774,352.82 136.5,350.5C 143.842,344.498 151.176,338.498 158.5,332.5C 159.264,330.26 160.098,327.927 161,325.5C 161.915,326.328 162.581,327.328 163,328.5C 163.399,328.272 163.565,327.938 163.5,327.5 Z"/></g>
<g><path style="opacity:1" fill="#949ca2" d="M 191.5,267.5 C 193.5,267.5 195.5,267.5 197.5,267.5C 197.831,289.34 197.497,311.006 196.5,332.5C 194.5,330.5 192.5,328.5 190.5,326.5C 191.497,307.007 191.83,287.34 191.5,267.5 Z"/></g>
<g><path style="opacity:1" fill="#abaeb0" d="M 130.5,281.5 C 131.167,307.833 131.833,334.167 132.5,360.5C 132.217,361.289 131.717,361.956 131,362.5C 130.5,337.169 130.333,311.836 130.5,286.5C 130.5,284.833 130.5,283.167 130.5,281.5 Z"/></g>
</svg>
